# AST/ASF file generated using VICON BodyLanguage
# -----------------------------------------------
:version 1.10
:name VICON
:units
  mass 1.0
  length 0.45
  angle deg
:documentation
   .ast/.asf automatically generated from VICON data using
   VICON BodyBuilder and BodyLanguage model FoxedUp or BRILLIANT.MOD
:root
   order TX TY TZ RX RY RZ
   axis XYZ
   position 0 0 0  
   orientation 0 0 0 
:bonedata
  begin
     id 1 
     name lhipjoint
     direction 0.578396 -0.714046 0.394458 
     length 2.21935 
     axis 0 0 0  XYZ
  end
  begin
     id 2 
     name lfemur
     direction 0.34202 -0.939693 0  
     length 6.39105  
     axis 0 0 20  XYZ
    dof rx ry rz
    limits (-160.0 20.0)
           (-70.0 70.0)
           (-60.0 70.0)
  end
  begin
     id 3 
     name ltibia
     direction 0.34202 -0.939693 0   
     length 6.99037   
     axis 0 0 20   XYZ
    dof rx
    limits (-10.0 170.0)
  end
  begin
     id 4 
     name lfoot
     direction 0.0582372 -0.160005 0.985397   
     length 2.06111   
     axis -90 7.62852e-016 20   XYZ
    dof rx rz
    limits (-45.0 90.0)
           (-70.0 20.0)
  end
  begin
     id 5 
     name ltoes
     direction 1.53556e-011 -4.21875e-011 1   
     length 1.04074   
     axis -90 7.62852e-016 20   XYZ
    dof rx
    limits (-90.0 20.0)
  end
  begin
     id 6 
     name rhipjoint
     direction -0.558179 -0.726269 0.40121   
     length 2.182  
     axis 0 0 0  XYZ 
  end
  begin
     id 7 
     name rfemur
     direction -0.34202 -0.939693 0   
     length 6.51172   
     axis 0 0 -20   XYZ
    dof rx ry rz
    limits (-160.0 20.0)
           (-70.0 70.0)
           (-70.0 60.0)
  end
  begin
     id 8 
     name rtibia
     direction -0.34202 -0.939693 0   
     length 7.02607   
     axis 0 0 -20   XYZ
    dof rx
    limits (-10.0 170.0)
 end
 begin
     id 9 
     name rfoot
     direction -0.0788856 -0.216737 0.973038   
     length 1.96734  
     axis -90 -7.62852e-016 -20   XYZ
    dof rx rz
    limits (-45.0 90.0)
           (-20.0 70.0)
  end
  begin
     id 10 
     name rtoes
     direction -1.53567e-011 -4.21783e-011 1   
     length 0.990825   
     axis -90 -7.62852e-016 -20   XYZ
    dof rx
    limits (-90.0 20.0)
  end
  begin
     id 11 
     name lowerback
     direction 0.00668177 0.999323 -0.0361741   
     length 1.7655   
     axis 0 0 0   XYZ
    dof rx ry rz
    limits (-20.0 45.0)
           (-30.0 30.0)
           (-30.0 30.0)
  end
  begin
     id 12 
     name upperback
     direction -0.00222086 0.99851 0.0545167   
     length 1.74912   
     axis 0 0 0   XYZ
    dof rx ry rz
    limits (-20.0 45.0)
           (-30.0 30.0)
           (-30.0 30.0)
  end
  begin
     id 13 
     name thorax
     direction -0.00733971 0.997496 0.0703443   
     length 1.75715   
     axis 0 0 0   XYZ
    dof rx ry rz
    limits (-20.0 45.0)
           (-30.0 30.0)
           (-30.0 30.0)
  end
  begin
     id 14 
     name lowerneck
     direction 0.0279797 0.994795 0.0979765   
     length 1.46939   
     axis 0 0 0   XYZ
    dof rx ry rz
    limits (-20.0 45.0)
           (-30.0 30.0)
           (-30.0 30.0)
  end
  begin
     id 15 
     name upperneck
     direction 0.00339187 0.976776 -0.214238   
     length 1.48018   
     axis 0 0 0   XYZ
    dof rx ry rz
    limits (-20.0 45.0)
           (-30.0 30.0)
           (-30.0 30.0)
  end
  begin
     id 16
     name head
     direction -0.00263506 0.996603 -0.0823096  
     length 1.4976  
     axis 0 0 0   XYZ
    dof rx ry rz
    limits (-20.0 45.0)
           (-30.0 30.0)
           (-30.0 30.0)
  end
  begin
     id 17 
     name lclavicle
     direction 0.894044 0.44508 -0.0508781  
     length 3.03024  
     axis 0 0 0   XYZ
    dof ry rz
    limits (-20.0 10.0)
           (0.0 20.0)
  end
  begin
     id 18 
     name lhumerus
     direction 1 -4.48961e-011 -2.39475e-018   
     length 4.4661   
     axis 180 -30 -90   XYZ
    dof rx ry rz
    limits (-60.0 90.0)
           (-90.0 90.0)
           (-90.0 90.0)
  end
  begin
     id 19
     name lradius
     direction 1 -4.48961e-011 9.29328e-028   
     length 3.41414   
     axis 180 -30 -90   XYZ
    dof rx
    limits (-10.0 170.0)
  end
  begin
     id 20
     name lwrist
     direction 1 -4.48985e-011 1.53461e-026   
     length 1.70707   
     axis -1.09697e-014 90 90   XYZ
    dof ry
    limits (-180.0 0.0)
 end
  begin
     id 21 
     name lhand
     direction 1 -4.48966e-011 3.06923e-026   
     length 0.328298   
     axis -1.95843e-014 90 90   XYZ
    dof rx rz
    limits (-90.0 90.0)
           (-45.0 45.0)
  end
  begin
     id 22 
     name lfingers
     direction 1 -4.48893e-011 6.13845e-026   
     length 0.264682   
     axis -3.91686e-014 90 90   XYZ
    dof rx
    limits (0.0 90.0)
  end
  begin
     id 23
     name lthumb
     direction 0.707107 -6.34876e-011 0.707107   
     length 0.380032   
     axis -90 45 2.85299e-015   XYZ
    dof rx rz
    limits (-45.0 45.0)
           (-45.0 45.0)
  end
  begin
     id 24 
     name rclavicle
     direction -0.936955 0.347862 -0.0332887   
     length 3.26927  
     axis 0 0 0   XYZ 
    dof ry rz
    limits (-10.0 20.0)
           (-20.0 0.0)
  end
  begin
     id 25 
     name rhumerus
     direction -1 -4.4896e-011 1.78637e-018  
     length 4.40431   
     axis 180 30 90   XYZ
    dof rx ry rz
    limits (-90.0 60.0)
           (-90.0 90.0)
           (-90.0 90.0)
  end
  begin
     id 26 
     name rradius
     direction -1 -4.48955e-011 9.34036e-027   
     length 3.04688   
     axis 180 30 90   XYZ
    dof rx
    limits (-10.0 170.0)
  end
  begin
     id 27 
     name rwrist
     direction -1 -4.49011e-011 1.53461e-026   
     length 1.52344   
     axis -1.09697e-014 -90 -90   XYZ
    dof ry
    limits (-180.0 0.0)
  end
  begin
     id 28
     name rhand
     direction -1 -4.48834e-011 3.06923e-026   
     length 0.500489   
     axis -1.95843e-014 -90 -90   XYZ
    dof rx rz
    limits (-90.0 90.0)
           (-45.0 45.0)
  end
  begin
     id 29
     name rfingers
     direction -1 -4.48967e-011 6.13845e-026   
     length 0.403507   
     axis -3.91686e-014 -90 -90   XYZ
    dof rx
    limits (0.0 90.0)
  end
  begin
     id 30
     name rthumb
     direction -0.707107 -6.34826e-011 0.707107   
     length 0.579358   
     axis -90 -45 -2.85299e-015   XYZ
    dof rx rz
    limits (-45.0 45.0)
           (-45.0 45.0)
  end
:hierarchy
  begin
    root lhipjoint rhipjoint lowerback
    lhipjoint lfemur
    lfemur ltibia
    ltibia lfoot
    lfoot ltoes
    rhipjoint rfemur
    rfemur rtibia
    rtibia rfoot
    rfoot rtoes
    lowerback upperback
    upperback thorax
    thorax lowerneck lclavicle rclavicle
    lowerneck upperneck
    upperneck head
    lclavicle lhumerus
    lhumerus lradius
    lradius lwrist
    lwrist lhand lthumb
    lhand lfingers
    rclavicle rhumerus
    rhumerus rradius
    rradius rwrist
    rwrist rhand rthumb
    rhand rfingers
  end

#!OML:ASF H:\IndianDance\Patient Classification 1\Patient 1\Session 1\dancer.ASF
:FULLY-SPECIFIED
:DEGREES
73
root 2.35929 15.3818 9.4636 -172.448 8.96217 -175.446
lowerback 4.7219 3.48275 3.76082
upperback -4.72776 5.08113 -0.465617
thorax -7.23568 2.34198 -3.13481
lowerneck -21.9133 2.12991 1.41092
upperneck 24.8675 1.23955 2.44455
head 11.787 0.80531 0.833591
rclavicle 7.85355e-015 -1.19271e-014
rhumerus -2.56774 40.7887 -6.52512
rradius 51.8381
rwrist -21.916
rhand -8.26892 11.4464
rfingers 7.12502
rthumb 17.6501 -17.7725
lclavicle 7.85355e-015 -1.19271e-014
lhumerus 2.8578 -20.9319 -1.90688
lradius 36.7594
lwrist 13.935
lhand 4.19898 2.44299
lfingers 7.12502
lthumb 29.6056 30.1009
rfemur -6.16267 -11.9363 23.2223
rtibia 30.6268
rfoot -21.5673 -20.4774
rtoes 6.25156
lfemur -34.1577 12.2122 -16.1547
ltibia 35.4478
lfoot -4.097 0.816057
ltoes 9.56272
74
root 2.3849 15.3732 9.54489 -172.402 8.62208 -175.348
lowerback 4.89332 3.46559 3.94234
upperback -4.70815 5.08164 -0.414558
thorax -7.30438 2.33091 -3.19427
lowerneck -21.9364 2.14793 1.46026
upperneck 24.7426 1.31763 2.27623
head 11.7441 0.829035 0.77556
rclavicle -3.47361e-014 -7.55382e-015
rhumerus -2.99897 40.6759 -6.58249
rradius 51.1537
rwrist -21.47
rhand -8.37629 11.5874
rfingers 7.12502
rthumb 17.5467 -17.6408
lclavicle -3.47361e-014 -7.55382e-015
lhumerus 2.50999 -20.6274 -1.59457
lradius 36.454
lwrist 14.2709
lhand 4.65247 2.62188
lfingers 7.12502
lthumb 30.0384 30.2022
rfemur -6.34934 -12.0637 23.6494
rtibia 30.3645
rfoot -22.0086 -20.7255
rtoes 7.27406
lfemur -34.5218 12.156 -15.9926
ltibia 35.3029
lfoot -3.78864 0.611081
ltoes 9.7962
75
root 2.4108 15.364 9.62636 -172.333 8.25876 -175.225
lowerback 5.03237 3.44315 4.12968
upperback -4.69401 5.07722 -0.348483
thorax -7.36161 2.31837 -3.23851
lowerneck -21.9633 2.16625 1.50565
upperneck 24.638 1.38925 2.1248
head 11.7099 0.850995 0.723655
rclavicle 2.10708e-014 -3.57812e-015
rhumerus -3.40349 40.5421 -6.6527
rradius 50.4622
rwrist -20.9961
rhand -8.49043 11.6896
rfingers 7.12502
rthumb 17.4369 -17.5483
lclavicle 2.10708e-014 -3.57812e-015
lhumerus 2.17694 -20.3132 -1.25053
lradius 36.1876
lwrist 14.582
lhand 5.04763 2.80142
lfingers 7.12502
lthumb 30.4154 30.3127
rfemur -6.54862 -12.2077 24.0985
rtibia 30.0948
rfoot -22.3537 -20.9668
rtoes 7.99119
lfemur -34.9192 12.0827 -15.8053
ltibia 35.1717
lfoot -3.50262 0.436774
ltoes 9.9621
76
root 2.43684 15.3543 9.70807 -172.24 7.86558 -175.083
lowerback 5.13995 3.40936 4.32045
upperback -4.68885 5.0596 -0.27044
thorax -7.4123 2.30022 -3.26883
lowerneck -22.0004 2.18424 1.53287
upperneck 24.5641 1.45148 2.01147
head 11.6893 0.8711 0.687722
rclavicle 9.55254e-015 -7.95139e-016
rhumerus -3.76859 40.3926 -6.73523
rradius 49.7619
rwrist -20.4826
rhand -8.60527 11.7598
rfingers 7.12502
rthumb 17.3264 -17.4879
lclavicle 9.55254e-015 -7.95139e-016
lhumerus 1.85723 -20.0062 -0.89185
lradius 35.9474
lwrist 14.8628
lhand 5.38154 2.96667
lfingers 7.12502
lthumb 30.7338 30.4185
rfemur -6.77307 -12.3875 24.565
rtibia 29.8359
rfoot -22.5837 -21.2054
rtoes 8.28817
lfemur -35.3505 11.9845 -15.5994
ltibia 35.0466
lfoot -3.26199 0.308817
ltoes 9.9455
77
root 2.4632 15.3444 9.78986 -172.13 7.44964 -174.932
lowerback 5.22195 3.37346 4.50342
upperback -4.69166 5.04007 -0.181777
thorax -7.45867 2.28248 -3.28189
lowerneck -22.0492 2.19057 1.5182
upperneck 24.5217 1.49366 1.94795
head 11.6824 0.883909 0.674302
rclavicle -4.93374e-014 -1.59028e-014
rhumerus -4.11858 40.2277 -6.82754
rradius 49.0588
rwrist -19.9418
rhand -8.71251 11.8091
rfingers 7.12502
rthumb 17.2232 -17.4476
lclavicle -4.93374e-014 -1.59028e-014
lhumerus 1.57576 -19.7303 -0.519538
lradius 35.7261
lwrist 15.1219
lhand 5.62935 3.13743
lfingers 7.12502
lthumb 30.9701 30.5446
rfemur -7.03279 -12.6069 25.0379
rtibia 29.6137
rfoot -22.7461 -21.4064
rtoes 8.39023
lfemur -35.8031 11.8733 -15.3856
ltibia 34.9199
lfoot -3.09621 0.230531
ltoes 9.63991
78
root 2.48967 15.3346 9.87149 -172.008 7.00932 -174.781
lowerback 5.28553 3.33333 4.67316
upperback -4.70442 5.01513 -0.0887785
thorax -7.50715 2.26324 -3.28159
lowerneck -22.1089 2.18754 1.46986
upperneck 24.5138 1.51651 1.93258
head 11.6902 0.890214 0.681505
rclavicle 5.29326e-014 -1.03368e-014
rhumerus -4.45805 40.0507 -6.93897
rradius 48.3591
rwrist -19.4123
rhand -8.78814 11.8309
rfingers 7.12502
rthumb 17.1504 -17.4321
lclavicle 5.29326e-014 -1.03368e-014
lhumerus 1.33376 -19.5059 -0.14715
lradius 35.5224
lwrist 15.3735
lhand 5.79863 3.31894
lfingers 7.12502
lthumb 31.1314 30.6953
rfemur -7.3429 -12.8878 25.5038
rtibia 29.4586
rfoot -22.862 -21.5473
rtoes 8.39178
lfemur -36.2661 11.7539 -15.1782
ltibia 34.783
lfoot -3.03886 0.203104
ltoes 8.92873
79
root 2.51617 15.3255 9.95294 -171.879 6.54875 -174.635
lowerback 5.33554 3.28997 4.82559
upperback -4.72685 4.98581 0.00802562
thorax -7.56042 2.24308 -3.26666
lowerneck -22.1773 2.17488 1.3915
upperneck 24.5386 1.52166 1.95569
head 11.7117 0.88987 0.705365
rclavicle 2.43263e-014 1.51076e-014
rhumerus -4.78941 39.8621 -7.07023
rradius 47.6704
rwrist -18.9386
rhand -8.81315 11.8283
rfingers 7.12502
rthumb 17.1263 -17.4368
lclavicle 2.43263e-014 1.51076e-014
lhumerus 1.13448 -19.3533 0.218674
lradius 35.3329
lwrist 15.642
lhand 5.87486 3.52545
lfingers 7.12502
lthumb 31.2041 30.8878
rfemur -7.71974 -13.2496 25.9579
rtibia 29.3973
rfoot -22.944 -21.6107
rtoes 8.33184
lfemur -36.7298 11.6275 -14.9808
ltibia 34.6312
lfoot -3.12465 0.233203
ltoes 7.74935
80
root 2.54254 15.3173 10.0339 -171.752 6.07661 -174.5
lowerback 5.38125 3.24677 4.95791
upperback -4.75598 4.95601 0.104353
thorax -7.62013 2.22373 -3.24098
lowerneck -22.2535 2.15161 1.29288
upperneck 24.59 1.50794 2.00719
head 11.7445 0.882136 0.740317
rclavicle 2.21086e-014 3.97569e-015
rhumerus -5.12398 39.6625 -7.22476
rradius 47.0046
rwrist -18.5668
rhand -8.77352 11.7984
rfingers 7.12502
rthumb 17.1644 -17.4634
lclavicle 2.21086e-014 3.97569e-015
lhumerus 0.977486 -19.2702 0.575448
lradius 35.1551
lwrist 15.9223
lhand 5.908 3.7417
lfingers 7.12502
lthumb 31.2357 31.098
rfemur -8.16573 -13.6841 26.3925
rtibia 29.4465
rfoot -23.0208 -21.5865
rtoes 8.33424
lfemur -37.1808 11.5102 -14.805
ltibia 34.4646
lfoot -3.37586 0.317217
ltoes 6.09439
81
root 2.5684 15.3101 10.1142 -171.631 5.59931 -174.376
lowerback 5.427 3.20056 5.07134
upperback -4.7914 4.9218 0.201231
thorax -7.68867 2.20311 -3.20402
lowerneck -22.3314 2.12635 1.19228
upperneck 24.6632 1.48723 2.06746
head 11.7862 0.871545 0.777882
rclavicle 1.29179e-014 1.45113e-014
rhumerus -5.44707 39.4556 -7.39773
rradius 46.3667
rwrist -18.3193
rhand -8.67402 11.7393
rfingers 7.12502
rthumb 17.2602 -17.5142
lclavicle 1.29179e-014 1.45113e-014
lhumerus 0.843301 -19.2668 0.917982
lradius 34.9916
lwrist 16.2152
lhand 5.911 3.96304
lfingers 7.12502
lthumb 31.2385 31.3188
rfemur -8.68074 -14.1966 26.8064
rtibia 29.6092
rfoot -23.0928 -21.4784
rtoes 8.39882
lfemur -37.6152 11.4232 -14.6583
ltibia 34.2913
lfoot -3.80279 0.446882
ltoes 4.06348
82
root 2.59398 15.304 10.1936 -171.521 5.1274 -174.261
lowerback 5.47811 3.15328 5.16278
upperback -4.83059 4.88547 0.299067
thorax -7.76645 2.18244 -3.15412
lowerneck -22.4092 2.10211 1.10327
upperneck 24.7535 1.46361 2.12223
head 11.8348 0.859448 0.811126
rclavicle 2.65533e-014 6.95746e-015
rhumerus -5.7622 39.2412 -7.59106
rradius 45.7633
rwrist -18.1868
rhand -8.53236 11.6532
rfingers 7.12502
rthumb 17.3965 -17.5883
lclavicle 2.65533e-014 6.95746e-015
lhumerus 0.724762 -19.349 1.23703
lradius 34.8471
lwrist 16.5096
lhand 5.9087 4.1731
lfingers 7.12502
lthumb 31.2363 31.5293
rfemur -9.25244 -14.7554 27.2047
rtibia 29.8745
rfoot -23.176 -21.3096
rtoes 8.56815
lfemur -38.0324 11.3998 -14.5477
ltibia 34.1281
lfoot -4.40453 0.611964
ltoes 1.85308
83
root 2.61905 15.2987 10.2719 -171.427 4.66824 -174.155
lowerback 5.53747 3.10527 5.23379
upperback -4.87112 4.84725 0.396312
thorax -7.85219 2.1617 -3.09383
lowerneck -22.4843 2.08288 1.0384
upperneck 24.8517 1.44201 2.16149
head 11.8865 0.848164 0.834922
rclavicle -1.3039e-014 0
rhumerus -6.06755 39.0203 -7.80306
rradius 45.1963
rwrist -18.1351
rhand -8.37889 11.5664
rfingers 7.12502
rthumb 17.5442 -17.6619
lclavicle -1.3039e-014 0
lhumerus 0.613945 -19.5148 1.52512
lradius 34.7229
lwrist 16.7811
lhand 5.90585 4.38806
lfingers 7.12502
lthumb 31.2336 31.7447
rfemur -9.86153 -15.3428 27.5867
rtibia 30.2205
rfoot -23.2763 -21.0983
rtoes 8.86774
lfemur -38.4372 11.4651 -14.4864
ltibia 33.9987
lfoot -5.16913 0.816666
ltoes -0.412025
84
root 2.64365 15.2935 10.349 -171.347 4.22543 -174.056
lowerback 5.60516 3.05083 5.28763
upperback -4.91252 4.79942 0.490479
thorax -7.9456 2.13679 -3.02668
lowerneck -22.5518 2.07608 1.00867
upperneck 24.9487 1.43034 2.18265
head 11.9368 0.842091 0.847624
rclavicle -3.98936e-014 -1.27222e-014
rhumerus -6.34629 38.7841 -8.03717
rradius 44.6554
rwrist -18.0966
rhand -8.24099 11.4923
rfingers 7.12502
rthumb 17.6769 -17.7242
lclavicle -3.98936e-014 -1.27222e-014
lhumerus 0.49303 -19.7648 1.76282
lradius 34.6219
lwrist 17.0125
lhand 5.91144 4.58591
lfingers 7.12502
lthumb 31.2389 31.9416
rfemur -10.4919 -15.9296 27.9592
rtibia 30.6213
rfoot -23.3882 -20.8807
rtoes 9.22716
lfemur -38.8508 11.6879 -14.5009
ltibia 33.9293
lfoot -6.06364 1.03379
ltoes -2.57581
85
root 2.66787 15.2883 10.4247 -171.286 3.80484 -173.967
lowerback 5.68293 2.99609 5.32494
upperback -4.95065 4.74924 0.577211
thorax -8.04209 2.11115 -2.95823
lowerneck -22.6134 2.07559 1.00522
upperneck 25.0358 1.42279 2.19003
head 11.9827 0.838689 0.851319
rclavicle 5.02552e-015 -8.34896e-015
rhumerus -6.61479 38.5379 -8.28699
rradius 44.1485
rwrist -18.0201
rhand -8.14091 11.4441
rfingers 7.12502
rthumb 17.7733 -17.7637
lclavicle 5.02552e-015 -8.34896e-015
lhumerus 0.376967 -20.0898 1.94664
lradius 34.541
lwrist 17.1882
lhand 5.9191 4.73375
lfingers 7.12502
lthumb 31.2462 32.088
rfemur -11.1211 -16.4949 28.3157
rtibia 31.0517
rfoot -23.5176 -20.6721
rtoes 9.64119
lfemur -39.2826 12.102 -14.613
ltibia 33.945
lfoot -7.05127 1.29219
ltoes -4.54396
86
root 2.6919 15.2826 10.4992 -171.242 3.40381 -173.891
lowerback 5.77303 2.93815 5.34648
upperback -4.98539 4.69244 0.652931
thorax -8.14279 2.08236 -2.8923
lowerneck -22.6759 2.08076 1.0193
upperneck 25.1126 1.41741 2.19789
head 12.0251 0.838272 0.852577
rclavicle -4.97738e-014 -9.14409e-015
rhumerus -6.86778 38.2907 -8.5479
rradius 43.6754
rwrist -17.8747
rhand -8.07748 11.4473
rfingers 7.12502
rthumb 17.8343 -17.7549
lclavicle -4.97738e-014 -9.14409e-015
lhumerus 0.265174 -20.4784 2.068
lradius 34.4754
lwrist 17.3111
lhand 5.93706 4.82377
lfingers 7.12502
lthumb 31.2633 32.1747
rfemur -11.7358 -17.0162 28.6576
rtibia 31.4933
rfoot -23.666 -20.4937
rtoes 10.0841
lfemur -39.7424 12.6999 -14.8266
ltibia 34.0646
lfoot -8.09426 1.65815
ltoes -6.3516
87
root 2.71597 15.2765 10.5725 -171.215 3.02783 -173.826
lowerback 5.87605 2.88482 5.3531
upperback -5.01535 4.63911 0.71614
thorax -8.24548 2.05529 -2.83199
lowerneck -22.7389 2.08154 1.03079
upperneck 25.1729 1.40455 2.21762
head 12.0612 0.83631 0.857374
rclavicle -4.3422e-015 -3.97569e-015
rhumerus -7.12053 38.053 -8.81085
rradius 43.2393
rwrist -17.6549
rhand -8.04373 11.4929
rfingers 7.12502
rthumb 17.8668 -17.7063
lclavicle -4.3422e-015 -3.97569e-015
lhumerus 0.177811 -20.9261 2.12658
lradius 34.4186
lwrist 17.3906
lhand 5.94928 4.86791
lfingers 7.12502
lthumb 31.275 32.2166
rfemur -12.3276 -17.4866 28.9846
rtibia 31.9346
rfoot -23.8309 -20.3466
rtoes 10.5293
lfemur -40.2307 13.4616 -15.1308
ltibia 34.3011
lfoot -9.16242 2.19736
ltoes -7.6424
